<?xml version="1.0" encoding="utf-8"?>
<!-- Generator: Adobe Illustrator 21.1.0, SVG Export Plug-In . SVG Version: 6.00 Build 0)  -->
<svg version="1.1" id="Capa_1" xmlns="http://www.w3.org/2000/svg" xmlns:xlink="http://www.w3.org/1999/xlink" x="0px" y="0px"
	 viewBox="0 0 621.8 621.8" style="enable-background:new 0 0 621.8 621.8;" xml:space="preserve">
<style type="text/css">
	.st0{fill:#92FFF6;}
	.st1{opacity:0.7;}
</style>
<g>
	<g>
		<circle class="st0" cx="307.9" cy="310.9" r="307.9"/>
	</g>
	<g class="st1">
		<g>
			<path d="M349.3,506.8h-15.7v-10.6c0-0.6-0.5-1.1-1.1-1.1s-1.1,0.5-1.1,1.1v10.6h-19.8v-10.6c0-0.6-0.5-1.1-1.1-1.1
				c-0.6,0-1.1,0.5-1.1,1.1v10.6h-19.8v-10.6c0-0.6-0.5-1.1-1.1-1.1c-0.6,0-1.1,0.5-1.1,1.1v10.6h-19.8v-10.6c0-0.6-0.5-1.1-1.1-1.1
				c-0.6,0-1.1,0.5-1.1,1.1v10.6h-19.8v-10.6c0-0.6-0.5-1.1-1.1-1.1c-0.6,0-1.1,0.5-1.1,1.1v10.6h-19.8v-10.6c0-0.6-0.5-1.1-1.1-1.1
				c-0.6,0-1.1,0.5-1.1,1.1v10.6h-19.8v-10.6c0-0.6-0.5-1.1-1.1-1.1s-1.1,0.5-1.1,1.1v10.6h-19.8v-10.6c0-0.6-0.5-1.1-1.1-1.1
				s-1.1,0.5-1.1,1.1v10.6h-40v-24.9h8.8c0.6,0,1.1-0.5,1.1-1.1c0-0.6-0.5-1.1-1.1-1.1h-8.8v-19.8h8.8c0.6,0,1.1-0.5,1.1-1.1
				c0-0.6-0.5-1.1-1.1-1.1h-8.8v-19.8h8.8c0.6,0,1.1-0.5,1.1-1.1c0-0.6-0.5-1.1-1.1-1.1h-8.8v-19.8h8.8c0.6,0,1.1-0.5,1.1-1.1
				c0-0.6-0.5-1.1-1.1-1.1h-8.8v-19.8h8.8c0.6,0,1.1-0.5,1.1-1.1s-0.5-1.1-1.1-1.1h-8.8v-19.8h8.8c0.6,0,1.1-0.5,1.1-1.1
				s-0.5-1.1-1.1-1.1h-8.8v-19.8h8.8c0.6,0,1.1-0.5,1.1-1.1s-0.5-1.1-1.1-1.1h-8.8v-19.8h8.8c0.6,0,1.1-0.5,1.1-1.1
				c0-0.6-0.5-1.1-1.1-1.1h-8.8v-18c0-1.8-1.5-3.3-3.3-3.3s-3.3,1.5-3.3,3.3v202.4c0,1.8,1.5,3.3,3.3,3.3h215.1
				c1.8,0,3.3-1.5,3.3-3.3C352.6,508.2,351.2,506.8,349.3,506.8z"/>
			<g>
				<path d="M190.1,485.6h-26.9V332.1h26.9V485.6z M167.5,481.2h18.1V380.5h-18.1V481.2z"/>
			</g>
			<g>
				<path d="M237.9,485.6H211v-95.7h26.9V485.6z M215.4,481.2h18.1v-42.9h-18.1V481.2z"/>
			</g>
			<g>
				<path d="M285.2,485.6h-26.9v-127h26.9V485.6z M262.7,481.2h18.1v-76.4h-18.1C262.7,404.8,262.7,481.2,262.7,481.2z"/>
			</g>
			<g>
				<path d="M334.7,485.6h-26.9V373.4h26.9V485.6z M312.2,481.2h18.1v-15.4h-18.1V481.2z"/>
			</g>
		</g>
	</g>
	<g class="st1">
		<g>
			<path d="M419.3,93.6H286.1v232.2h169.5V136L419.3,93.6z M417.6,103.1l27.9,32.6h-27.9V103.1z M448.1,318.2H293.6V101.1h116.5
				v42.2h38V318.2z"/>
			<path d="M372.5,199.3c-2.4-0.4-4.8-0.6-7.1-0.6c-23,0-41.6,18.7-41.6,41.6c0,23,18.7,41.6,41.6,41.6c23,0,41.6-18.7,41.6-41.6
				c0-1.4-0.1-3-0.2-4.5l-0.2-2.2h-31.9v-33.9L372.5,199.3z"/>
			<path d="M382.5,189.9l-2.9-0.5v39.8H417l-0.3-2.8C414.8,208.1,400.7,193.1,382.5,189.9z M384.6,224.2v-28.7
				c13.7,3.6,24.2,14.8,26.8,28.7C411.3,224.2,384.6,224.2,384.6,224.2z"/>
			<polygon points="400.5,144.9 400.5,139.1 337.4,139.1 304,139.1 304,144.9 337.4,144.9 			"/>
			<polygon points="400.5,161.2 400.5,155.4 337.4,155.4 304,155.4 304,161.2 337.4,161.2 			"/>
			<polygon points="400.5,177.5 400.5,171.7 337.4,171.7 304,171.7 304,177.5 337.4,177.5 			"/>
			<rect x="305.9" y="297.4" width="124.2" height="5.8"/>
		</g>
	</g>
</g>
</svg>
