<?xml version="1.0" encoding="utf-8"?>
<!-- Generator: Adobe Illustrator 21.1.0, SVG Export Plug-In . SVG Version: 6.00 Build 0)  -->
<svg version="1.1" id="Layer_1" xmlns="http://www.w3.org/2000/svg" xmlns:xlink="http://www.w3.org/1999/xlink" x="0px" y="0px"
	 viewBox="0 0 512 512" style="enable-background:new 0 0 512 512;" xml:space="preserve">
<style type="text/css">
	.st0{fill:#92FFF6;}
	.st1{fill:#38C6D9;}
	.st2{fill:#366695;}
	.st3{fill:#273B7A;}
	.st4{fill:#121149;}
	.st5{fill:#FFFFFF;}
	.st6{fill:#F0ECEC;}
	.st7{fill:#263A7A;}
	.st8{fill:#D0D1D3;}
	.st9{fill:#BFBFBF;}
	.st10{fill:#F42F42;}
	.st11{fill:none;}
	.st12{opacity:0.2038;fill:#332E09;enable-background:new    ;}
	.st13{fill:#2FBBF4;}
</style>
<g>
	<g>
		<circle class="st0" cx="390.2" cy="240.8" r="121.8"/>
	</g>
	<path class="st1" d="M511.3,240.7c0-8.4-0.8-16.5-2.4-24.4l-47.7-47.7l-33.6,85l-10.9-10.9l-72.2,34.1l19.4,19.4l-46.6,24.1
		l37.2,37.2c11,3.3,22.8,5,34.8,5C456.8,362.7,511.3,308,511.3,240.7z"/>
	<rect x="349.7" y="257.8" class="st2" width="79.4" height="16"/>
	<g>
		<rect x="389" y="257.8" class="st3" width="39.9" height="16"/>
		<path class="st3" d="M321.3,259.2h136.2c2.5,0,4.6-2.1,4.6-4.6v-83.3c0-2.5-2.1-4.6-4.6-4.6H321.3c-2.5,0-4.6,2.1-4.6,4.6v83.3
			C316.6,257.1,318.7,259.2,321.3,259.2z"/>
	</g>
	<path class="st4" d="M457.4,166.7H389v92.5h68.4c2.5,0,4.6-2.1,4.6-4.6v-83.3C462,168.7,460,166.7,457.4,166.7z"/>
	<path class="st5" d="M325,254.3h128.7c1.4,0,2.5-1.1,2.5-2.5v-77.4c0-1.4-1.1-2.5-2.5-2.5H325c-1.4,0-2.5,1.1-2.5,2.5v77.4
		C322.5,253.1,323.6,254.3,325,254.3z"/>
	<path class="st6" d="M453.7,171.7H389v82.6h64.6c1.4,0,2.5-1.1,2.5-2.5v-77.4C456.3,172.8,455.1,171.7,453.7,171.7z"/>
	<rect x="344.5" y="270.4" class="st7" width="89.8" height="6.4"/>
	<rect x="389" y="270.4" class="st4" width="45.2" height="6.4"/>
	<path class="st3" d="M461.3,320.5H317.4c-1.7,0-3.2-1.5-3.2-3.2v-31.2c0-1.7,1.5-3.2,3.2-3.2h144c1.7,0,3.2,1.5,3.2,3.2v31.2
		C464.5,319,463.2,320.5,461.3,320.5z"/>
	<path class="st4" d="M461.3,282.9H389v37.6h72.3c1.7,0,3.2-1.5,3.2-3.2v-31.2C464.5,284.4,463.2,282.9,461.3,282.9z"/>
	<g>
		<rect x="325.4" y="289.5" class="st5" width="5.7" height="5.7"/>
		<rect x="339" y="289.5" class="st5" width="5.7" height="5.7"/>
		<rect x="352.5" y="289.5" class="st5" width="5.7" height="5.7"/>
		<rect x="366.2" y="289.5" class="st5" width="5.7" height="5.7"/>
		<rect x="379.7" y="289.5" class="st5" width="5.7" height="5.7"/>
	</g>
	<g>
		<rect x="393.3" y="289.5" class="st8" width="5.7" height="5.7"/>
		<rect x="406.8" y="289.5" class="st8" width="5.7" height="5.7"/>
		<rect x="420.4" y="289.5" class="st8" width="5.7" height="5.7"/>
		<rect x="433.9" y="289.5" class="st8" width="5.7" height="5.7"/>
		<rect x="447.5" y="289.5" class="st8" width="5.7" height="5.7"/>
	</g>
	<g>
		<rect x="325.4" y="308.5" class="st5" width="5.7" height="5.7"/>
		<rect x="339" y="308.5" class="st5" width="5.7" height="5.7"/>
		<rect x="352.5" y="308.5" class="st5" width="5.7" height="5.7"/>
		<rect x="366.2" y="308.5" class="st5" width="46.4" height="5.7"/>
	</g>
	<g>
		<rect x="389" y="308.5" class="st8" width="23.4" height="5.7"/>
		<rect x="420.4" y="308.5" class="st8" width="5.7" height="5.7"/>
		<rect x="433.9" y="308.5" class="st8" width="5.7" height="5.7"/>
		<rect x="447.5" y="308.5" class="st8" width="5.7" height="5.7"/>
	</g>
	<g>
		<rect x="333.3" y="298.5" class="st5" width="5.7" height="5.7"/>
		<rect x="346.8" y="298.5" class="st5" width="5.7" height="5.7"/>
		<rect x="360.4" y="298.5" class="st5" width="5.7" height="5.7"/>
		<rect x="373.9" y="298.5" class="st5" width="5.7" height="5.7"/>
		<rect x="387.5" y="298.5" class="st5" width="5.7" height="5.7"/>
	</g>
	<g>
		<rect x="389" y="298.5" class="st8" width="4.2" height="5.7"/>
		<rect x="401" y="298.5" class="st8" width="5.7" height="5.7"/>
		<rect x="414.7" y="298.5" class="st8" width="5.7" height="5.7"/>
		<rect x="428.2" y="298.5" class="st8" width="5.7" height="5.7"/>
		<rect x="441.8" y="298.5" class="st8" width="5.7" height="5.7"/>
	</g>
	<g>
		<path class="st9" d="M263.2,209.8L208,235.4l4.5-18.1c-1.4-0.5-40.8-13.7-71.5,10.4c0,0,15-58.1,81.1-49l4.5-17.6L263.2,209.8
			L263.2,209.8z"/>
	</g>
	<g id="Page-1_1_">
		<g id="letter-G">
			<g id="Page-1" transform="translate(3.000000, 2.000000)">
				<path id="Fill-1" class="st10" d="M94.5,155.8v8.8c0,1.1-0.1,2.1-0.3,2.7c-0.2,0.7-0.7,1.4-1.3,1.8c-0.6,0.6-1.4,1.1-2.4,1.6
					c-2.7,1.5-5.4,2.6-8,3.3c-2.5,0.7-5.4,1-8.4,1c-3.5,0-6.7-0.6-9.6-1.6s-5.4-2.6-7.4-4.7c-2.1-2.1-3.5-4.6-4.7-7.4
					c-1.1-3-1.6-6.2-1.6-9.8c0-3.5,0.6-6.9,1.6-9.7c1-3,2.6-5.5,4.7-7.5c2.1-2.1,4.6-3.7,7.5-4.7c3-1.1,6.3-1.6,10.1-1.6
					c3.1,0,5.8,0.5,8.1,1.3c2.4,0.8,4.3,1.8,5.7,3.1c1.5,1.3,2.6,2.5,3.3,4c0.8,1.4,1.1,2.6,1.1,3.7c0,1.1-0.5,2.2-1.3,3
					c-0.9,0.8-1.9,1.3-3.1,1.3c-0.7,0-1.3-0.1-1.9-0.5s-1.1-0.8-1.5-1.3c-1.1-1.8-2.1-3.1-2.9-4c-0.8-0.9-1.8-1.7-3.2-2.3
					c-1.4-0.6-3.1-0.9-5.1-0.9c-2.2,0-4,0.3-5.7,1.1c-1.7,0.7-3.1,1.8-4.3,3.2c-1.1,1.4-2.1,3.1-2.7,5.1c-0.7,2.1-0.9,4.3-0.9,6.7
					c0,5.4,1.3,9.5,3.7,12.4c2.5,2.9,5.9,4.3,10.3,4.3c2.2,0,4.1-0.2,6.1-0.8c1.8-0.6,3.8-1.4,5.7-2.4v-7.4h-7.2
					c-1.7,0-3-0.2-3.9-0.8c-0.9-0.6-1.4-1.4-1.4-2.6c0-1,0.3-1.8,1.1-2.5c0.7-0.7,1.7-1,3-1h10.5c1.3,0,2.4,0.1,3.3,0.3
					c0.9,0.2,1.6,0.7,2.2,1.5C94.1,153.1,94.5,154.2,94.5,155.8"/>
				<path id="Stroke-3" class="st11" d="M94.5,155.8v8.8c0,1.1-0.1,2.1-0.3,2.7c-0.2,0.7-0.7,1.4-1.3,1.8c-0.6,0.6-1.4,1.1-2.4,1.6
					c-2.7,1.5-5.4,2.6-8,3.3c-2.5,0.7-5.4,1-8.4,1c-3.5,0-6.7-0.6-9.6-1.6s-5.4-2.6-7.4-4.7c-2.1-2.1-3.5-4.6-4.7-7.4
					c-1.1-3-1.6-6.2-1.6-9.8c0-3.5,0.6-6.9,1.6-9.7c1-3,2.6-5.5,4.7-7.5c2.1-2.1,4.6-3.7,7.5-4.7c3-1.1,6.3-1.6,10.1-1.6
					c3.1,0,5.8,0.5,8.1,1.3c2.4,0.8,4.3,1.8,5.7,3.1c1.5,1.3,2.6,2.5,3.3,4c0.8,1.4,1.1,2.6,1.1,3.7c0,1.1-0.5,2.2-1.3,3
					c-0.9,0.8-1.9,1.3-3.1,1.3c-0.7,0-1.3-0.1-1.9-0.5s-1.1-0.8-1.5-1.3c-1.1-1.8-2.1-3.1-2.9-4c-0.8-0.9-1.8-1.7-3.2-2.3
					c-1.4-0.6-3.1-0.9-5.1-0.9c-2.2,0-4,0.3-5.7,1.1c-1.7,0.7-3.1,1.8-4.3,3.2c-1.1,1.4-2.1,3.1-2.7,5.1c-0.7,2.1-0.9,4.3-0.9,6.7
					c0,5.4,1.3,9.5,3.7,12.4c2.5,2.9,5.9,4.3,10.3,4.3c2.2,0,4.1-0.2,6.1-0.8c1.8-0.6,3.8-1.4,5.7-2.4v-7.4h-7.2
					c-1.7,0-3-0.2-3.9-0.8c-0.9-0.6-1.4-1.4-1.4-2.6c0-1,0.3-1.8,1.1-2.5c0.7-0.7,1.7-1,3-1h10.5c1.3,0,2.4,0.1,3.3,0.3
					c0.9,0.2,1.6,0.7,2.2,1.5C94.1,153.1,94.5,154.2,94.5,155.8L94.5,155.8z"/>
				<path id="Fill-5" class="st12" d="M93.3,165.5c-0.2,0.6-0.6,1-1,1.5c-0.6,0.5-1.3,1-2.2,1.5c-2.7,1.5-5.3,2.5-7.8,3.2
					c-2.5,0.7-5.3,1-8.1,1c-3.4,0-6.5-0.6-9.3-1.6c-2.7-1-5.1-2.5-7.1-4.5c-1.9-1.9-3.4-4.3-4.5-7.2c-0.9-2.6-1.5-5.5-1.6-8.7
					c0,0.2,0,0.6,0,0.8c0,3.5,0.6,6.7,1.6,9.5c1,2.9,2.5,5.3,4.5,7.2c1.9,1.9,4.3,3.4,7.1,4.5c2.7,1,5.9,1.6,9.3,1.6
					c3,0,5.7-0.3,8.1-1c2.5-0.7,5.1-1.7,7.8-3.2c0.9-0.5,1.6-1,2.2-1.5c0.5-0.5,0.8-0.9,1-1.5c0.2-0.6,0.3-1.5,0.3-2.5v-1.7
					C93.5,164,93.5,164.8,93.3,165.5"/>
				<path id="Stroke-7" class="st11" d="M58.9,136.1c1.8-1.8,4-3.2,6.6-4.1c2.6-1,5.7-1.5,9.2-1.5"/>
			</g>
		</g>
	</g>
	<g id="Page-1_2_">
		<g id="letter-C">
			<g id="Page-1_3_" transform="translate(4.000000, 2.000000)">
				<path id="Fill-1_1_" class="st13" d="M36.8,222.4c0,1.5-0.3,3-1,4.7s-1.8,3.3-3.4,5c-1.5,1.6-3.5,3-5.9,4s-5.1,1.5-8.4,1.5
					c-2.4,0-4.6-0.2-6.5-0.7c-1.9-0.5-3.8-1.1-5.4-2.2c-1.6-0.9-3.1-2.3-4.5-3.8c-1.3-1.5-2.3-3.1-3.1-4.8c-0.8-1.8-1.5-3.7-1.9-5.7
					c-0.5-2.1-0.7-4.1-0.7-6.4c0-3.7,0.6-7,1.6-9.8s2.6-5.4,4.6-7.4c1.9-2.1,4.3-3.7,7-4.7c2.6-1,5.5-1.6,8.6-1.6
					c3.7,0,7,0.7,9.8,2.2c2.9,1.5,5.1,3.3,6.6,5.5c1.5,2.2,2.3,4.2,2.3,6.2c0,1-0.3,1.9-1.1,2.9c-0.8,0.9-1.6,1.3-2.7,1.3
					s-2.1-0.2-2.6-0.8c-0.6-0.6-1.3-1.5-1.9-2.9c-1.3-2.3-2.6-4-4.2-5c-1.6-1.1-3.7-1.7-6.1-1.7c-3.8,0-6.9,1.5-9,4.3
					c-2.3,2.9-3.4,7-3.4,12.4c0,3.5,0.5,6.5,1.5,8.9c1,2.4,2.4,4.1,4.2,5.3c1.8,1.1,4,1.7,6.4,1.7c2.6,0,4.9-0.7,6.7-1.9
					c1.8-1.4,3.2-3.2,4.1-5.8c0.3-1.3,0.9-2.2,1.5-3c0.6-0.8,1.5-1.1,2.9-1.1c1.1,0,2.1,0.3,2.9,1.1
					C36.5,220.4,36.8,221.3,36.8,222.4"/>
				<path id="Stroke-3_1_" class="st11" d="M36.8,222.4c0,1.5-0.3,3-1,4.7s-1.8,3.3-3.4,5c-1.5,1.6-3.5,3-5.9,4s-5.1,1.5-8.4,1.5
					c-2.4,0-4.6-0.2-6.5-0.7c-1.9-0.5-3.8-1.1-5.4-2.2c-1.6-0.9-3.1-2.3-4.5-3.8c-1.3-1.5-2.3-3.1-3.1-4.8c-0.8-1.8-1.5-3.7-1.9-5.7
					c-0.5-2.1-0.7-4.1-0.7-6.4c0-3.7,0.6-7,1.6-9.8s2.6-5.4,4.6-7.4c1.9-2.1,4.3-3.7,7-4.7c2.6-1,5.5-1.6,8.6-1.6
					c3.7,0,7,0.7,9.8,2.2c2.9,1.5,5.1,3.3,6.6,5.5c1.5,2.2,2.3,4.2,2.3,6.2c0,1-0.3,1.9-1.1,2.9c-0.8,0.9-1.6,1.3-2.7,1.3
					s-2.1-0.2-2.6-0.8c-0.6-0.6-1.3-1.5-1.9-2.9c-1.3-2.3-2.6-4-4.2-5c-1.6-1.1-3.7-1.7-6.1-1.7c-3.8,0-6.9,1.5-9,4.3
					c-2.3,2.9-3.4,7-3.4,12.4c0,3.5,0.5,6.5,1.5,8.9c1,2.4,2.4,4.1,4.2,5.3c1.8,1.1,4,1.7,6.4,1.7c2.6,0,4.9-0.7,6.7-1.9
					c1.8-1.4,3.2-3.2,4.1-5.8c0.3-1.3,0.9-2.2,1.5-3c0.6-0.8,1.5-1.1,2.9-1.1c1.1,0,2.1,0.3,2.9,1.1
					C36.5,220.4,36.8,221.3,36.8,222.4L36.8,222.4z"/>
				<path id="Stroke-5" class="st11" d="M0.1,205c0.9-2.5,2.3-4.8,4-6.6s3.8-3.2,6.2-4.1"/>
				<path id="Fill-7" class="st12" d="M35.9,221.7c-0.1,1-0.5,2.2-0.9,3.4c-0.7,1.6-1.7,3.2-3.2,4.7s-3.3,2.9-5.6,3.8
					c-2.3,0.9-4.9,1.5-8,1.5c-2.3,0-4.5-0.2-6.4-0.7c-1.8-0.5-3.7-1.1-5.1-2.1c-1.5-0.9-3-2.2-4.2-3.7c-1.1-1.4-2.2-3-3-4.7
					c-0.8-1.7-1.5-3.5-1.8-5.5C-2.7,216.8-3,215-3,213c0,0.3,0,0.6,0,0.9c0,2.2,0.2,4.3,0.6,6.3c0.5,1.9,1,3.8,1.8,5.5
					c0.8,1.7,1.8,3.3,3,4.7c1.3,1.5,2.7,2.7,4.2,3.7c1.5,0.9,3.2,1.6,5.1,2.1c1.9,0.5,4,0.7,6.4,0.7c3.1,0,5.7-0.5,8-1.5
					c2.3-0.9,4.1-2.3,5.6-3.8c1.5-1.6,2.5-3.1,3.2-4.7c0.7-1.6,1-3.1,1-4.3C36,222.2,36,222,35.9,221.7"/>
			</g>
		</g>
	</g>
	<g id="Page-1_4_">
		<g id="letter-T">
			<g id="Page-1_5_" transform="translate(4.000000, 2.000000)">
				<path id="Fill-1_2_" class="st13" d="M114,216.5h-10.3v33.7c0,1.9-0.5,3.4-1.3,4.3c-0.9,0.9-1.9,1.4-3.3,1.4s-2.5-0.5-3.4-1.4
					c-0.9-0.9-1.3-2.4-1.3-4.3v-33.7H84.2c-1.6,0-2.7-0.3-3.5-1s-1.1-1.6-1.1-2.9s0.5-2.2,1.3-2.9c0.8-0.7,1.9-1,3.5-1h30
					c1.6,0,2.9,0.3,3.7,1c0.8,0.7,1.1,1.6,1.1,2.9c0,1.1-0.3,2.1-1.3,2.9C116.9,216.1,115.6,216.5,114,216.5"/>
				<path id="Stroke-3_2_" class="st11" d="M114,216.5h-10.3v33.7c0,1.9-0.5,3.4-1.3,4.3c-0.9,0.9-1.9,1.4-3.3,1.4s-2.5-0.5-3.4-1.4
					c-0.9-0.9-1.3-2.4-1.3-4.3v-33.7H84.2c-1.6,0-2.7-0.3-3.5-1s-1.1-1.6-1.1-2.9s0.5-2.2,1.3-2.9c0.8-0.7,1.9-1,3.5-1h30
					c1.6,0,2.9,0.3,3.7,1c0.8,0.7,1.1,1.6,1.1,2.9c0,1.1-0.3,2.1-1.3,2.9C116.9,216.1,115.6,216.5,114,216.5L114,216.5z"/>
				<path id="Fill-5_1_" class="st12" d="M99.2,253.4c-1.1,0-2.1-0.3-2.7-1.1c-0.7-0.8-1.1-2.1-1.1-3.8v1.7c0,1.7,0.3,3,1.1,3.8
					c0.7,0.8,1.6,1.1,2.7,1.1c1.1,0,2.1-0.3,2.7-1.1c0.7-0.8,1-2.1,1-3.8v-1.7c0,1.7-0.3,3-1,3.8
					C101.2,253.1,100.3,253.4,99.2,253.4"/>
				<path id="Stroke-7_1_" class="st11" d="M85.2,211.3H94"/>
			</g>
		</g>
	</g>
	<g id="Page-1_6_">
		<g id="letter-A">
			<g id="Page-1_7_" transform="translate(3.000000, 2.000000)">
				<path id="Fill-1_3_" class="st10" d="M43.8,289.3h13.6l-6.9-18.9L43.8,289.3z M62.1,302l-2.2-5.7H41.4l-2.2,5.8
					c-0.8,2.3-1.6,3.8-2.2,4.6c-0.6,0.8-1.6,1.1-3,1.1c-1.1,0-2.2-0.5-3.1-1.3c-0.9-0.8-1.4-1.8-1.4-2.9c0-0.6,0.1-1.3,0.3-1.9
					c0.2-0.7,0.6-1.6,1-2.7l11.7-29.6c0.3-0.8,0.7-1.8,1.1-3.1c0.5-1.1,0.9-2.2,1.5-3c0.6-0.8,1.3-1.4,2.1-1.9
					c0.9-0.5,1.9-0.7,3.2-0.7c1.3,0,2.4,0.2,3.2,0.7c0.9,0.5,1.6,1.1,2.1,1.8c0.6,0.8,1,1.6,1.4,2.5c0.3,0.9,0.8,2.1,1.4,3.5
					l11.9,29.5c0.9,2.3,1.4,3.9,1.4,4.9s-0.5,2.1-1.4,2.9c-0.9,0.9-1.9,1.4-3.2,1.4c-0.7,0-1.4-0.1-1.8-0.3c-0.6-0.2-0.9-0.6-1.3-1
					c-0.3-0.5-0.7-1.1-1.1-2.1C62.8,303.5,62.4,302.7,62.1,302L62.1,302z"/>
				<path id="Stroke-3_3_" class="st11" d="M43.8,289.3h13.6l-6.9-18.9L43.8,289.3L43.8,289.3z M62.1,302l-2.2-5.7H41.4l-2.2,5.8
					c-0.8,2.3-1.6,3.8-2.2,4.6c-0.6,0.8-1.6,1.1-3,1.1c-1.1,0-2.2-0.5-3.1-1.3c-0.9-0.8-1.4-1.8-1.4-2.9c0-0.6,0.1-1.3,0.3-1.9
					c0.2-0.7,0.6-1.6,1-2.7l11.7-29.6c0.3-0.8,0.7-1.8,1.1-3.1c0.5-1.1,0.9-2.2,1.5-3c0.6-0.8,1.3-1.4,2.1-1.9
					c0.9-0.5,1.9-0.7,3.2-0.7c1.3,0,2.4,0.2,3.2,0.7c0.9,0.5,1.6,1.1,2.1,1.8c0.6,0.8,1,1.6,1.4,2.5c0.3,0.9,0.8,2.1,1.4,3.5
					l11.9,29.5c0.9,2.3,1.4,3.9,1.4,4.9s-0.5,2.1-1.4,2.9c-0.9,0.9-1.9,1.4-3.2,1.4c-0.7,0-1.4-0.1-1.8-0.3c-0.6-0.2-0.9-0.6-1.3-1
					c-0.3-0.5-0.7-1.1-1.1-2.1C62.8,303.5,62.4,302.7,62.1,302L62.1,302z"/>
				<path id="Fill-5_2_" class="st12" d="M36.3,304.5c-0.5,0.6-1.1,0.9-2.3,0.9c-0.9,0-1.7-0.3-2.5-1c-0.5-0.5-0.8-1-1-1.6
					c-0.1,0.3-0.1,0.7-0.1,0.9c0,0.8,0.3,1.6,1,2.3c0.7,0.7,1.6,1,2.5,1c1.1,0,1.8-0.2,2.3-0.9c0.6-0.7,1.3-2.2,2.1-4.5l2.1-5.6
					C40.5,296.2,36.8,304,36.3,304.5L36.3,304.5z M40.8,295.4h19.8H40.8z M60.7,296.1l2.2,5.6c0.3,0.7,0.7,1.5,1,2.4
					c0.3,0.8,0.7,1.5,1,1.8c0.2,0.3,0.6,0.6,1,0.8c0.5,0.2,0.9,0.3,1.5,0.3c1,0,1.8-0.3,2.6-1c0.7-0.7,1-1.5,1-2.3
					c0-0.2,0-0.6-0.1-0.9c-0.1,0.6-0.5,1-0.9,1.6c-0.7,0.7-1.6,1-2.6,1c-0.6,0-1.1-0.1-1.5-0.3c-0.5-0.2-0.8-0.5-1-0.8
					c-0.3-0.3-0.7-1-1-1.8c-0.5-0.9-0.8-1.7-1-2.4L60.7,296.1z M60.5,293.8H40.8H60.5z"/>
				<path id="Stroke-7_2_" class="st11" d="M45.3,270l-4.3,11.2"/>
			</g>
		</g>
	</g>
</g>
</svg>
