<?xml version="1.0" encoding="utf-8"?>
<!-- Generator: Adobe Illustrator 21.1.0, SVG Export Plug-In . SVG Version: 6.00 Build 0)  -->
<svg version="1.1" id="Capa_1" xmlns="http://www.w3.org/2000/svg" xmlns:xlink="http://www.w3.org/1999/xlink" x="0px" y="0px"
	 viewBox="0 0 142.7 142.7" style="enable-background:new 0 0 142.7 142.7;" xml:space="preserve">
<style type="text/css">
	.st0{fill:#92FFF6;}
	.st1{opacity:0.7;}
</style>
<g>
	<circle class="st0" cx="76.2" cy="71.3" r="64.5"/>
	<g class="st1">
		<path d="M119.6,60.9c0,2.6-0.4,5.2-1.2,7.7c-3.9,18.2-38.6,40.5-40.1,41.4c-0.3,0.2-0.7,0.3-1,0.3c-0.4,0-0.7-0.1-1-0.3
			c-0.7-0.4-17.5-10.9-29.4-23.3c-0.7-0.8-0.7-2,0.1-2.7c0.8-0.7,2-0.7,2.7,0.1c10,10.4,23.8,19.6,27.7,22.1
			c5.7-3.8,34.2-23.4,37.5-38.5c0.7-2.3,1.1-4.5,1-6.7c-0.1-7.7-4.3-14.7-11-18.4c-3.1-1.7-6.6-2.6-10.2-2.5
			c-6.3,0-12.2,2.9-16.2,7.7c-0.4,0.4-0.9,0.7-1.5,0.7l0,0c-0.6,0-1.1-0.2-1.5-0.7c-4.1-4.8-10-7.6-16.3-7.5c-3.5,0-7.1,1-10.2,2.7
			c-6.7,3.8-10.8,10.9-10.8,18.6c0,2.2,0.4,4.4,1.1,6.5c0.5,2,1.4,4,2.6,6.1L54.6,74l4-6.8c0.3-0.6,0.9-0.9,1.6-0.9
			c0.6-0.1,1.3,0.3,1.6,0.9l6.7,10.2l7.3-20.1c0.3-0.7,1-1.3,1.8-1.3l0,0c0.8,0,1.5,0.5,1.8,1.2l6.3,16.6l11-0.1
			c1.1,0,1.9,0.8,1.9,1.9c0,1.1-0.8,1.9-1.9,1.9l-12.3,0.1c-0.8,0-1.5-0.5-1.8-1.2l-5-13.1l-6.8,18.9c-0.2,0.7-0.9,1.2-1.6,1.2
			c-0.1,0-0.1,0-0.2,0c-0.6,0-1.2-0.3-1.6-0.9l-7.1-10.8l-3,5.1c-0.3,0.6-1,0.9-1.6,0.9l-21.1,0.1c-1,0-1.9-0.8-1.9-1.9
			c0-1.1,0.8-1.9,1.9-1.9l2.9,0c-0.9-1.8-1.5-3.5-1.9-5.1c-0.8-2.3-1.2-4.9-1.2-7.5c-0.1-9.1,4.8-17.4,12.7-21.9
			c3.7-2,7.8-3.1,12-3.2c6.7,0,13.1,2.6,17.8,7.3c4.6-4.8,11-7.5,17.7-7.5c4.2,0,8.3,1,12,3C114.6,43.6,119.6,51.9,119.6,60.9z"/>
	</g>
</g>
</svg>
