<?xml version="1.0" encoding="utf-8"?>
<!-- Generator: Adobe Illustrator 21.1.0, SVG Export Plug-In . SVG Version: 6.00 Build 0)  -->
<svg version="1.1" id="Layer_1" xmlns="http://www.w3.org/2000/svg" xmlns:xlink="http://www.w3.org/1999/xlink" x="0px" y="0px"
	 viewBox="0 0 512 512" style="enable-background:new 0 0 512 512;" xml:space="preserve">
<style type="text/css">
	.st0{fill:#92FFF6;}
	.st1{fill:#FFDA79;}
	.st2{fill:#A9D0E1;}
	.st3{fill:#58595B;}
	.st4{fill:#CBEBFF;fill-opacity:0.25;}
	.st5{fill:#5A6B89;}
	.st6{fill:#5A6B89;fill-opacity:0.25;}
	.st7{fill:#18001C;fill-opacity:0.25;}
</style>
<g>
	<circle class="st0" cx="254.8" cy="255" r="255"/>
	<g>
		<rect x="282.9" y="324.4" class="st1" width="52.5" height="17.6"/>
		<g>
			<path class="st2" d="M420.1,380.9v20.7H249.3c-5.8,0-10.4-4.7-10.4-10.4c0-5.8,4.7-10.4,10.4-10.4h123.1v-18.2h-95
				c-5.8,0-10.4-4.7-10.4-10.4c0-5.7,4.7-10.4,10.4-10.4h95v-55.6c0-12.9-5-24.9-14.1-33.9l-2.6-2.6l19.1-19.1l2.6,2.6
				c14.1,14.1,22,32.9,22,52.9V381L420.1,380.9L420.1,380.9z"/>
			<polygon class="st2" points="383.2,222.4 355.8,249.7 329.6,276 320.3,266.6 304.6,250.9 295.3,241.6 348.8,188 			"/>
		</g>
		<g>
			<polygon class="st1" points="404.8,212.6 389,228.2 383.2,222.4 348.8,188 343,182.2 358.7,166.4 			"/>
			
				<rect x="293.5" y="255.5" transform="matrix(0.7071 -0.7071 0.7071 0.7071 -99.3126 293.4941)" class="st1" width="22.3" height="22.3"/>
		</g>
		<path class="st3" d="M420.1,375.1h-14.9v-88.9c0-20.9-7.9-40.5-22.1-55.6l0.3-0.3l1.8,1.8c2.2,2.2,5.9,2.2,8.2,0l15.8-15.8
			c2.2-2.2,2.2-5.9,0-8.2l-46.3-45.9c-2.2-2.2-5.9-2.2-8.2,0l-15.8,15.8c-2.2,2.2-2.2,5.9,0,8.2l1.8,1.8l-49.5,49.5
			c-2.2,2.2-2.2,5.9,0,8.2l5.3,5.3l-11.6,11.6c-2.2,2.2-2.2,5.9,0,8.2l15.8,15.8c2.2,2.2,5.9,2.2,8.2,0l11.6-11.6l5.3,5.3
			c2.2,2.2,5.9,2.2,8.2,0l22.1-22.1c7,7.7,10.9,17.8,10.9,28.3v49.9h-25.6v-11.7c0-3.2-2.6-5.8-5.8-5.8h-52.5
			c-3.2,0-5.8,2.6-5.8,5.8v11.7c-8.7,0.3-15.8,7.3-15.8,16.2c0,8.8,7.2,16.2,16.2,16.2h89.1v6.8H249.3c-8.8,0-16.2,7.2-16.2,16.2
			c0,8.8,7.2,16.2,16.2,16.2h170.8c3.2,0,5.8-2.6,5.8-5.8v-20.7C425.8,377.7,423.3,375.1,420.1,375.1z M358.7,174.6l37.9,37.9
			L389,220c-15.3-15.5-34.3-34.3-37.9-37.9L358.7,174.6z M304.6,274.2l-7.6-7.6l7.6-7.6l7.6,7.6L304.6,274.2z M329.6,267.9
			c-15.3-15.3-16.2-16.2-26.3-26.3l45.3-45.5l26.3,26.3C370.2,227.1,334.3,263.2,329.6,267.9z M329.6,330.2v5.9h-41v-5.9H329.6z
			 M414.3,396h-165c-2.6,0-4.6-2.1-4.6-4.6s2.1-4.6,4.6-4.6h123.1c3.2,0,5.8-2.6,5.8-5.8v-18.2c0-3.2-2.6-5.8-5.8-5.8h-95
			c-2.5,0-4.6-2.1-4.6-4.6s2.1-4.6,4.6-4.6c0,0,92.9,0,95,0c3.2,0,5.8-2.6,5.8-5.8v-55.6c0-13.7-5.1-26.5-14.2-36.5l10.9-10.9
			c12.2,12.9,18.8,29.6,18.8,47.4v94.7c0,3.2,2.6,5.8,5.8,5.8h14.9L414.3,396L414.3,396z"/>
	</g>
	<g>
		<path id="glass" class="st4" d="M197,193.6v-40.9c0,0,10-1.5,10.1-9.8c0.1-5.8-2.1-8-4.1-9.5h-61.5c-2.2,1.5-4.4,3.7-4.3,9.5
			c0.1,8.3,10,9.8,10,9.8v40.9c0,0-32.8,74.8-45.9,104.2c-2.5,5.8,2.2,21.7,15.9,23.5c13.7,1.9,54.9,1.1,54.9,1.1s41.2,0.8,54.9-1.1
			c13.7-1.9,18.5-17.8,16-23.5C230.1,268.3,197,193.6,197,193.6z"/>
		<path id="edge" class="st5" d="M252.2,293.7c-4.8-10.9-12.6-28.5-20.2-45.3c-10.9-24.6-22.3-49.9-25.3-56.9v-31.8
			c4.4-2.5,10.2-7.5,10.4-16.4c0.3-12.3-6.5-17.1-9.4-18.7l-2.1-1.1h-66.2l-2.2,1.1c-3,1.5-10.1,6.4-10,18.7
			c0.1,9.1,5.7,14,9.8,16.4v31.8c-5.5,12.7-33.2,75.9-44.9,102.3c-2.6,6.1-1.7,14.8,2.8,22.7c4.7,8.3,12.2,13.7,21.1,14.9
			c6.4,0.8,18.5,1.4,36.1,1.4c10.4,0,19.2-0.1,20-0.1c0.8,0,9.7,0.1,20.2,0.1c17.6,0,29.7-0.4,36.1-1.4c9-1.2,16.4-6.5,21.1-14.9
			C254,308.9,254.8,299.9,252.2,293.7z M117.8,318.4c-6.6-1-10.1-5.7-11.6-8.3c-2.6-4.8-2.8-9.4-2.1-11.1
			c13-29.2,45.6-103.5,45.9-104.2l0.3-0.6v-41.5v-2.5l-2.5-0.4c-0.3,0-7.5-1.2-7.6-6.9c0-3.2,0.7-5.4,2.1-6.5h59.8
			c1.4,1.1,2.1,3.3,2.1,6.5c-0.1,5.7-7.3,6.9-7.6,6.9l-2.5,0.4v43.8l0.3,0.6c0.3,0.7,33.2,75,46,104.2c0.8,1.7,0.7,6.2-2.1,11.1
			c-1.5,2.8-5.1,7.5-11.6,8.4c-5.8,0.8-17.7,1.2-34.4,1.2c-10.9,0-20-0.1-20-0.1l0,0l0,0c-0.1,0-9.1,0.1-20,0.1
			C135.4,319.7,123.5,319.3,117.8,318.4z"/>
		<g id="bubbles-in">
			<circle class="st6" cx="165" cy="227.5" r="12.9"/>
			<circle class="st6" cx="151.1" cy="256.8" r="4.4"/>
			<circle class="st6" cx="171.2" cy="277.3" r="6.6"/>
			<circle class="st6" cx="155.7" cy="292.2" r="4.4"/>
			<circle class="st6" cx="213.2" cy="303.4" r="5.4"/>
			<circle class="st6" cx="180.9" cy="204.4" r="5.4"/>
			<circle class="st6" cx="125" cy="301.3" r="2.8"/>
		</g>
		<path id="liquid" class="st7" d="M199.7,216.7c-11.2-2.1-19.9,9.1-29.7,14.7c-8.6,4.8-22,5.9-33.7,5.7
			c-10,22.5-21.6,48.8-28.1,63.6c-0.3,1,0,4.7,2.3,8.3c2.1,3.2,4.7,5,8.2,5.5c5.5,0.8,17.3,1.1,33.7,1.1c10.8,0,19.9-0.1,19.9-0.1
			h0.1h0.1c0.1,0,9.1,0.1,20,0.1c16.6,0,28.2-0.4,33.9-1.1c3.3-0.4,6.1-2.3,8.2-5.5c2.3-3.6,2.6-7.2,2.3-8.2
			C228,281,210.3,241,199.7,216.7z"/>
		<g id="bubbles-above">
			<circle class="st6" cx="179.9" cy="50" r="6.6"/>
			<circle class="st6" cx="160.4" cy="77.3" r="13.3"/>
			<circle class="st6" cx="190.7" cy="84.4" r="4.4"/>
			<circle class="st6" cx="179.9" cy="104.5" r="8.4"/>
		</g>
	</g>
</g>
</svg>
